ffmpeg version 4.2.7-0ubuntu0.1 Copyright (c) 2000-2022 the FFmpeg developers
  built with gcc 9 (Ubuntu 9.4.0-1ubuntu1~20.04.1)
  configuration: --prefix=/usr --extra-version=0ubuntu0.1 --toolchain=hardened --libdir=/usr/lib/x86_64-linux-gnu --incdir=/usr/include/x86_64-linux-gnu --arch=amd64 --enable-gpl --disable-stripping --enable-avresample --disable-filter=resample --enable-avisynth --enable-gnutls --enable-ladspa --enable-libaom --enable-libass --enable-libbluray --enable-libbs2b --enable-libcaca --enable-libcdio --enable-libcodec2 --enable-libflite --enable-libfontconfig --enable-libfreetype --enable-libfribidi --enable-libgme --enable-libgsm --enable-libjack --enable-libmp3lame --enable-libmysofa --enable-libopenjpeg --enable-libopenmpt --enable-libopus --enable-libpulse --enable-librsvg --enable-librubberband --enable-libshine --enable-libsnappy --enable-libsoxr --enable-libspeex --enable-libssh --enable-libtheora --enable-libtwolame --enable-libvidstab --enable-libvorbis --enable-libvpx --enable-libwavpack --enable-libwebp --enable-libx265 --enable-libxml2 --enable-libxvid --enable-libzmq --enable-libzvbi --enable-lv2 --enable-omx --enable-openal --enable-opencl --enable-opengl --enable-sdl2 --enable-libdc1394 --enable-libdrm --enable-libiec61883 --enable-nvenc --enable-chromaprint --enable-frei0r --enable-libx264 --enable-shared
  libavutil      56. 31.100 / 56. 31.100
  libavcodec     58. 54.100 / 58. 54.100
  libavformat    58. 29.100 / 58. 29.100
  libavdevice    58.  8.100 / 58.  8.100
  libavfilter     7. 57.100 /  7. 57.100
  libavresample   4.  0.  0 /  4.  0.  0
  libswscale      5.  5.100 /  5.  5.100
  libswresample   3.  5.100 /  3.  5.100
  libpostproc    55.  5.100 / 55.  5.100
Routing option strict to both codec and muxer layer
[h264 @ 0x55721b475e40] Reinit context to 1088x1920, pix_fmt: yuv420p
Input #0, mov,mp4,m4a,3gp,3g2,mj2, from '/var/www/html/project/media/video/original/Film_4.mp4':
  Metadata:
    major_brand     : 3gp5
    minor_version   : 0
    compatible_brands: 3gp5isom
    creation_time   : 2023-03-09T17:30:30.000000Z
  Duration: 00:01:56.05, start: 0.000000, bitrate: 5291 kb/s
    Stream #0:0(und): Video: h264 (High), 1 reference frame (avc1 / 0x31637661), yuv420p(tv, bt709, left), 1080x1920 (1088x1920), 5161 kb/s, 30 fps, 30 tbr, 90k tbn, 180k tbc (default)
    Metadata:
      creation_time   : 2023-03-09T17:30:30.000000Z
    Stream #0:1(und): Audio: aac (LC) (mp4a / 0x6134706D), 48000 Hz, stereo, fltp, 123 kb/s (default)
    Metadata:
      creation_time   : 2023-03-09T17:30:30.000000Z
Input #1, png_pipe, from '/var/www/html/project/static/images/templates/logo_vertical.png':
  Duration: N/A, bitrate: N/A
    Stream #1:0: Video: png, 1 reference frame, rgba(pc), 1920x1080 [SAR 2835:2835 DAR 16:9], 25 tbr, 25 tbn, 25 tbc
[Parsed_scale_1 @ 0x55721b48b340] w:1280 h:720 flags:'bilinear' interl:0
[Parsed_scale_4 @ 0x55721b4a4180] w:-1 h:720 flags:'bilinear' interl:0
[Parsed_scale_6 @ 0x55721b4df000] w:1280 h:720 flags:'bilinear' interl:0
Stream mapping:
  Stream #0:0 (h264) -> split (graph 0)
  Stream #1:0 (png) -> scale (graph 0)
  overlay (graph 0) -> Stream #0:0 (libx264)
  Stream #0:1 -> #0:1 (aac (native) -> aac (native))
Press [q] to stop, [?] for help
[h264 @ 0x55721b4a8080] Reinit context to 1088x1920, pix_fmt: yuv420p
[graph_1_in_0_1 @ 0x55721b888680] tb:1/48000 samplefmt:fltp samplerate:48000 chlayout:0x3
[Parsed_scale_1 @ 0x55721c530d40] w:1280 h:720 flags:'bilinear' interl:0
[Parsed_scale_4 @ 0x55721c533b40] w:-1 h:720 flags:'bilinear' interl:0
[Parsed_scale_6 @ 0x55721c532200] w:1280 h:720 flags:'bilinear' interl:0
[graph 0 input from stream 0:0 @ 0x55721c535600] w:1080 h:1920 pixfmt:yuv420p tb:1/90000 fr:30/1 sar:0/1 sws_param:flags=2
[graph 0 input from stream 1:0 @ 0x55721c536680] w:1920 h:1080 pixfmt:rgba tb:1/25 fr:25/1 sar:2835/2835 sws_param:flags=2
[Parsed_scale_1 @ 0x55721c530d40] w:1080 h:1920 fmt:yuv420p sar:0/1 -> w:1280 h:720 fmt:yuv420p sar:0/1 flags:0x2
[Parsed_boxblur_2 @ 0x55721c531600] luma_radius:36 luma_power:1 chroma_radius:18 chroma_power:1 alpha_radius:36 alpha_power:1 w:1280 chroma_w:640 h:720 chroma_h:360
[Parsed_setsar_3 @ 0x55721c532e00] w:1280 h:720 sar:0/1 dar:16/9 -> sar:1/1 dar:16/9
[Parsed_scale_4 @ 0x55721c533b40] w:1080 h:1920 fmt:yuv420p sar:0/1 -> w:405 h:720 fmt:yuva420p sar:0/1 flags:0x2
[Parsed_setsar_5 @ 0x55721c530f80] w:405 h:720 sar:0/1 dar:9/16 -> sar:1/1 dar:9/16
[Parsed_overlay_8 @ 0x55721c533980] main w:1280 h:720 fmt:yuv420p overlay w:405 h:720 fmt:yuva420p
[Parsed_overlay_8 @ 0x55721c533980] [framesync @ 0x55721c533fe8] Selected 1/90000 time base
[Parsed_overlay_8 @ 0x55721c533980] [framesync @ 0x55721c533fe8] Sync level 2
[Parsed_scale_6 @ 0x55721c532200] w:1920 h:1080 fmt:rgba sar:2835/2835 -> w:1280 h:720 fmt:yuva420p sar:1/1 flags:0x2
[Parsed_setsar_7 @ 0x55721c532b80] w:1280 h:720 sar:1/1 dar:16/9 -> sar:1/1 dar:16/9
[Parsed_overlay_9 @ 0x55721c534900] main w:1280 h:720 fmt:yuv420p overlay w:1280 h:720 fmt:yuva420p
[Parsed_overlay_9 @ 0x55721c534900] [framesync @ 0x55721c534a28] Selected 1/90000 time base
[Parsed_overlay_9 @ 0x55721c534900] [framesync @ 0x55721c534a28] Sync level 2
[libx264 @ 0x55721b4dfbc0] using SAR=1/1
[libx264 @ 0x55721b4dfbc0] using cpu capabilities: MMX2 SSE2Fast SSSE3 SSE4.2 AVX FMA3 BMI2 AVX2
[libx264 @ 0x55721b4dfbc0] profile High, level 3.1
[libx264 @ 0x55721b4dfbc0] 264 - core 155 r2917 0a84d98 - H.264/MPEG-4 AVC codec - Copyleft 2003-2018 - http://www.videolan.org/x264.html - options: cabac=1 ref=1 deblock=1:0:0 analyse=0x3:0x113 me=hex subme=2 psy=1 psy_rd=1.00:0.00 mixed_ref=0 me_range=16 chroma_me=1 trellis=0 8x8dct=1 cqm=0 deadzone=21,11 fast_pskip=1 chroma_qp_offset=0 threads=22 lookahead_threads=5 sliced_threads=0 nr=0 decimate=1 interlaced=0 bluray_compat=0 constrained_intra=0 bframes=3 b_pyramid=2 b_adapt=1 b_bias=0 direct=1 weightb=1 open_gop=0 weightp=1 keyint=250 keyint_min=25 scenecut=40 intra_refresh=0 rc_lookahead=10 rc=crf mbtree=1 crf=18.0 qcomp=0.60 qpmin=0 qpmax=69 qpstep=4 ip_ratio=1.40 aq=1:1.00
Output #0, mp4, to '/var/www/html/project/media/video/watermarks/Film_4.mp4':
  Metadata:
    major_brand     : 3gp5
    minor_version   : 0
    compatible_brands: 3gp5isom
    encoder         : Lavf58.29.100
    Stream #0:0: Video: h264 (libx264), 1 reference frame (avc1 / 0x31637661), yuv420p, 1280x720 [SAR 1:1 DAR 16:9], q=-1--1, 30 fps, 15360 tbn, 30 tbc (default)
    Metadata:
      encoder         : Lavc58.54.100 libx264
    Side data:
      cpb: bitrate max/min/avg: 0/0/0 buffer size: 0 vbv_delay: -1
    Stream #0:1(und): Audio: aac (LC) (mp4a / 0x6134706D), 48000 Hz, stereo, fltp, delay 1024, 128 kb/s (default)
    Metadata:
      creation_time   : 2023-03-09T17:30:30.000000Z
      encoder         : Lavc58.54.100 aac
[Parsed_overlay_8 @ 0x55721c533980] [framesync @ 0x55721c533fe8] Sync level 1
[Parsed_overlay_8 @ 0x55721c533980] [framesync @ 0x55721c533fe8] Sync level 0
[Parsed_overlay_9 @ 0x55721c534900] [framesync @ 0x55721c534a28] Sync level 0
No more output streams to write to, finishing.
frame= 3481 fps= 25 q=-1.0 Lsize=   52261kB time=00:01:55.98 bitrate=3691.1kbits/s speed=0.827x    
[AVIOContext @ 0x55721b474280] Statistics: 0 seeks, 270 writeouts
video:50313kB audio:1822kB subtitle:0kB other streams:0kB global headers:0kB muxing overhead: 0.241403%
Input file #0 (/var/www/html/project/media/video/original/Film_4.mp4):
  Input stream #0:0 (video): 3481 packets read (74879542 bytes); 3481 frames decoded; 
  Input stream #0:1 (audio): 5437 packets read (1795273 bytes); 5437 frames decoded (5567488 samples); 
  Total: 8918 packets (76674815 bytes) demuxed
Input file #1 (/var/www/html/project/static/images/templates/logo_vertical.png):
  Input stream #1:0 (video): 1 packets read (93903 bytes); 1 frames decoded; 
  Total: 1 packets (93903 bytes) demuxed
Output file #0 (/var/www/html/project/media/video/watermarks/Film_4.mp4):
  Output stream #0:0 (video): 3481 frames encoded; 3481 packets muxed (51520945 bytes); 
  Output stream #0:1 (audio): 5437 frames encoded (5567488 samples); 5438 packets muxed (1865728 bytes); 
  Total: 8919 packets (53386673 bytes) muxed
[AVIOContext @ 0x55721b4df680] Statistics: 2 seeks, 207 writeouts
[libx264 @ 0x55721b4dfbc0] frame I:17    Avg QP:15.18  size: 85025
[libx264 @ 0x55721b4dfbc0] frame P:921   Avg QP:18.29  size: 32833
[libx264 @ 0x55721b4dfbc0] frame B:2543  Avg QP:21.55  size:  7800
[libx264 @ 0x55721b4dfbc0] consecutive B-frames:  1.6%  2.2%  2.6% 93.7%
[libx264 @ 0x55721b4dfbc0] mb I  I16..4: 21.7% 38.3% 39.9%
[libx264 @ 0x55721b4dfbc0] mb P  I16..4:  9.4% 13.0%  2.3%  P16..4: 24.9% 14.3% 10.6%  0.0%  0.0%    skip:25.4%
[libx264 @ 0x55721b4dfbc0] mb B  I16..4:  1.2%  1.3%  0.1%  B16..8: 16.4%  7.2%  1.7%  direct: 8.4%  skip:63.7%  L0:36.1% L1:43.6% BI:20.3%
[libx264 @ 0x55721b4dfbc0] 8x8 transform intra:51.7% inter:23.5%
[libx264 @ 0x55721b4dfbc0] coded y,uvDC,uvAC intra: 38.9% 26.8% 4.7% inter: 12.8% 6.5% 0.3%
[libx264 @ 0x55721b4dfbc0] i16 v,h,dc,p: 35% 27%  9% 29%
[libx264 @ 0x55721b4dfbc0] i8 v,h,dc,ddl,ddr,vr,hd,vl,hu: 25% 35% 14%  3%  5%  5%  6%  4%  3%
[libx264 @ 0x55721b4dfbc0] i4 v,h,dc,ddl,ddr,vr,hd,vl,hu: 28% 18% 14%  6%  8%  7%  7%  7%  6%
[libx264 @ 0x55721b4dfbc0] i8c dc,h,v,p: 64% 19% 14%  3%
[libx264 @ 0x55721b4dfbc0] Weighted P-Frames: Y:0.4% UV:0.0%
[libx264 @ 0x55721b4dfbc0] kb/s:3552.10
[aac @ 0x55721b4a7c00] Qavg: 201.828
[AVIOContext @ 0x55721b47d200] Statistics: 76793710 bytes read, 2 seeks
[AVIOContext @ 0x55721b48c240] Statistics: 93903 bytes read, 0 seeks
